<mxfile host="app.diagrams.net" modified="2023-11-17T21:45:34.773Z" agent="Mozilla/5.0 (Macintosh; Intel Mac OS X 10_15_7) AppleWebKit/537.36 (KHTML, like Gecko) Chrome/119.0.0.0 Safari/537.36" etag="wsP9l3XBrq-haDy5iLzc" version="22.1.3" type="github">
  <diagram name="Page-1" id="IQU6geX9c39-HAdZ6K0P">
    <mxGraphModel dx="1182" dy="463" grid="1" gridSize="10" guides="1" tooltips="1" connect="1" arrows="1" fold="1" page="1" pageScale="1" pageWidth="850" pageHeight="1100" math="0" shadow="0">
      <root>
        <mxCell id="0" />
        <mxCell id="1" parent="0" />
        <mxCell id="OzeLxnkCMh9r-LhSdCQO-1" value="" style="endArrow=classic;html=1;rounded=0;" edge="1" parent="1">
          <mxGeometry width="50" height="50" relative="1" as="geometry">
            <mxPoint x="240" y="240" as="sourcePoint" />
            <mxPoint x="240" y="640" as="targetPoint" />
          </mxGeometry>
        </mxCell>
        <mxCell id="OzeLxnkCMh9r-LhSdCQO-2" value="" style="endArrow=classic;html=1;rounded=0;" edge="1" parent="1">
          <mxGeometry width="50" height="50" relative="1" as="geometry">
            <mxPoint x="600" y="240" as="sourcePoint" />
            <mxPoint x="600" y="640" as="targetPoint" />
          </mxGeometry>
        </mxCell>
        <mxCell id="OzeLxnkCMh9r-LhSdCQO-3" value="client" style="text;html=1;strokeColor=none;fillColor=none;align=center;verticalAlign=middle;whiteSpace=wrap;rounded=0;" vertex="1" parent="1">
          <mxGeometry x="210" y="210" width="60" height="30" as="geometry" />
        </mxCell>
        <mxCell id="OzeLxnkCMh9r-LhSdCQO-5" value="worker" style="text;html=1;strokeColor=none;fillColor=none;align=center;verticalAlign=middle;whiteSpace=wrap;rounded=0;" vertex="1" parent="1">
          <mxGeometry x="570" y="210" width="60" height="30" as="geometry" />
        </mxCell>
        <mxCell id="OzeLxnkCMh9r-LhSdCQO-9" value="thread_worker_&lt;br&gt;while condition" style="rounded=0;whiteSpace=wrap;html=1;" vertex="1" parent="1">
          <mxGeometry x="480" y="250" width="120" height="40" as="geometry" />
        </mxCell>
        <mxCell id="OzeLxnkCMh9r-LhSdCQO-10" value="thread_worker_&lt;br&gt;acquire lock" style="rounded=0;whiteSpace=wrap;html=1;" vertex="1" parent="1">
          <mxGeometry x="480" y="300" width="120" height="40" as="geometry" />
        </mxCell>
        <mxCell id="OzeLxnkCMh9r-LhSdCQO-11" value="thread_worker_&lt;br&gt;cv.wait: condition" style="rounded=0;whiteSpace=wrap;html=1;" vertex="1" parent="1">
          <mxGeometry x="480" y="350" width="120" height="40" as="geometry" />
        </mxCell>
        <mxCell id="OzeLxnkCMh9r-LhSdCQO-12" value="await_stop&lt;br&gt;should_stop = true" style="rounded=0;whiteSpace=wrap;html=1;" vertex="1" parent="1">
          <mxGeometry x="120" y="400" width="120" height="40" as="geometry" />
        </mxCell>
        <mxCell id="OzeLxnkCMh9r-LhSdCQO-14" value="await_stop&lt;br&gt;cv.notify_all" style="rounded=0;whiteSpace=wrap;html=1;" vertex="1" parent="1">
          <mxGeometry x="120" y="450" width="120" height="40" as="geometry" />
        </mxCell>
        <mxCell id="OzeLxnkCMh9r-LhSdCQO-15" value="thread_worker_&lt;br&gt;cv.wait: wait" style="rounded=0;whiteSpace=wrap;html=1;" vertex="1" parent="1">
          <mxGeometry x="480" y="500" width="120" height="40" as="geometry" />
        </mxCell>
      </root>
    </mxGraphModel>
  </diagram>
</mxfile>
